<svg xmlns="http://www.w3.org/2000/svg" viewBox="0 0 261.48 40"><defs><style>.cls-1{fill:#fff;}.cls-2{fill:#03a9f4;}</style></defs><title>logo</title><g id="Layer_2" data-name="Layer 2"><g id="Layer_1-2" data-name="Layer 1"><path class="cls-1" d="M15.13,33.34H6.05V24.26a3,3,0,1,0-6.05,0v12.1a3,3,0,0,0,3,3h12.1a3,3,0,0,0,0-6.05Z"/><path class="cls-2" d="M3,18.21a3,3,0,0,0,3-3V6.11h9.08l3-3-3-3H3a3,3,0,0,0-3,3v12.1A3,3,0,0,0,3,18.21Z"/><path class="cls-2" d="M36.3,21.24a3,3,0,0,0-3,3v9.08H24.2l-3,3,3,3H36.3a3,3,0,0,0,3-3V24.26A3,3,0,0,0,36.3,21.24Z"/><path class="cls-1" d="M36.3.06H24.2a3,3,0,0,0-3,3V13.68a1.5,1.5,0,0,1-1.51,1.51,1.51,1.51,0,1,0,0,3H24.2a3,3,0,0,0,3-3V6.11h6.05v9.08a3,3,0,1,0,6.05,0V3.09A3,3,0,0,0,36.3.06Z"/><polygon class="cls-1" points="64.81 0 57.48 0 57.48 39.34 83.57 39.34 83.57 32.5 64.81 32.5 64.81 0"/><path class="cls-1" d="M101.4,11.89a14.37,14.37,0,0,0-10.6,4,13.4,13.4,0,0,0-4,10.06,13.63,13.63,0,0,0,4,10.12A14.58,14.58,0,0,0,101.4,40a14.43,14.43,0,0,0,10.54-3.93A13.68,13.68,0,0,0,116,25.95a13.45,13.45,0,0,0-4.05-10.06A14.23,14.23,0,0,0,101.4,11.89Zm0,21.74c-4.23,0-7.26-3.22-7.26-7.68s3.16-7.62,7.26-7.62,7.32,3.16,7.32,7.62S105.68,33.63,101.4,33.63Z"/><path class="cls-1" d="M131.4,33.57q-3.22,0-3.22-4.83V19h8.63V12.55h-8.63V0h-6.85V29.16c0,7.15,2.44,10.78,8.34,10.78a12.2,12.2,0,0,0,7.92-2.62L135.51,32A6.93,6.93,0,0,1,131.4,33.57Z"/><rect class="cls-1" x="144.37" y="12.55" width="6.85" height="26.8"/><path class="cls-1" d="M174.39,12.07a10.11,10.11,0,0,0-7.68,3.16V12.55h-6.85v26.8h6.85V21.06a8,8,0,0,1,5.84-2.56c4,0,6,2.08,6,6.31V39.34h6.85V23.62C185.4,15.94,181.71,12.07,174.39,12.07Z"/><path class="cls-1" d="M196.39,31.36a4.17,4.17,0,0,0-4.33,4,4.22,4.22,0,0,0,4.33,4.3,4.15,4.15,0,0,0,4-4.3A4.08,4.08,0,0,0,196.39,31.36Z"/><path class="cls-1" d="M224.21,30.35a7.36,7.36,0,0,1-6,3.28c-3.39,0-5.12-2-5.12-6.13V12.55h-6.85V28.92c0,7.33,3.87,11.08,9.41,11.08a10.52,10.52,0,0,0,8.58-3.93v3.28h6.85V12.55h-6.85Z"/><polygon class="cls-1" points="261.48 12.55 238.26 12.55 238.26 18.98 251.89 18.98 237.36 34.4 237.36 39.34 261.18 39.34 261.18 32.97 246.95 32.97 261.48 17.49 261.48 12.55"/><path class="cls-1" d="M147.95,0a4,4,0,0,0-4.32,4,4.11,4.11,0,0,0,4.32,4.29,4,4,0,0,0,4-4.29A3.92,3.92,0,0,0,147.95,0Z"/></g></g></svg>